<svg xmlns="http://www.w3.org/2000/svg" version="1.1" xmlns:xlink="http://www.w3.org/1999/xlink" width="200" height="200"><svg xmlns="http://www.w3.org/2000/svg" version="1.1" xmlns:xlink="http://www.w3.org/1999/xlink" viewBox="0 0 200 200"><rect width="200" height="200" fill="url('#gradient')"></rect><defs><linearGradient id="SvgjsLinearGradient1001" gradientTransform="rotate(45 0.5 0.5)"><stop offset="0%" stop-color="#dddad6"></stop><stop offset="100%" stop-color="#ff2e09"></stop></linearGradient></defs><g><g fill="#000000" transform="matrix(1.6571068956216848,0,0,1.6571068956216848,8.204056578735802,112.26493452693408)" stroke="#495819" stroke-width="0"><path d="M1.08-4.13L6.40-5.98L1.08-7.78L1.08-10.77L9.67-7.26L9.67-4.66L1.08-1.14L1.08-4.13ZM10.76-5.36L10.76-5.36Q10.76-7.87 11.85-9.32Q12.93-10.76 14.87-10.76L14.87-10.76Q16.29-10.76 17.26-9.65L17.26-9.65L17.26-15L20.56-15L20.56 0L17.60 0L17.43-1.13Q16.42 0.20 14.85 0.20L14.85 0.20Q12.97 0.20 11.87-1.25Q10.76-2.70 10.76-5.36ZM14.06-5.76L14.05-5.16Q14.05-2.34 15.69-2.34L15.69-2.34Q16.79-2.34 17.26-3.26L17.26-3.26L17.26-7.29Q16.81-8.22 15.71-8.22L15.71-8.22Q14.19-8.22 14.06-5.76L14.06-5.76ZM27.54 0.20L27.54 0.20Q25.11 0.20 23.60-1.25Q22.10-2.71 22.10-5.03L22.10-5.03L22.10-5.30Q22.10-6.92 22.70-8.16Q23.30-9.40 24.45-10.08Q25.61-10.76 27.19-10.76L27.19-10.76Q29.41-10.76 30.70-9.38Q31.99-8.00 31.99-5.53L31.99-5.53L31.99-4.25L25.45-4.25Q25.63-3.36 26.22-2.85Q26.82-2.34 27.76-2.34L27.76-2.34Q29.33-2.34 30.21-3.44L30.21-3.44L31.71-1.66Q31.09-0.81 29.97-0.31Q28.84 0.20 27.54 0.20ZM27.17-8.22L27.17-8.22Q25.72-8.22 25.45-6.31L25.45-6.31L28.77-6.31L28.77-6.56Q28.79-7.35 28.37-7.79Q27.95-8.22 27.17-8.22ZM35.76-10.57L37.40-3.92L39.07-10.57L42.54-10.57L39.09 0L35.73 0L32.29-10.57L35.76-10.57ZM44.06-13.19L47.35-13.19L47.35-10.57L49.09-10.57L49.09-8.28L47.35-8.28L47.35-3.45Q47.35-2.85 47.57-2.62Q47.78-2.38 48.42-2.38L48.42-2.38Q48.91-2.38 49.24-2.44L49.24-2.44L49.24-0.09Q48.35 0.20 47.38 0.20L47.38 0.20Q45.68 0.20 44.87-0.61Q44.06-1.41 44.06-3.04L44.06-3.04L44.06-8.28L42.71-8.28L42.71-10.57L44.06-10.57L44.06-13.19ZM49.69-4.82L49.68-5.38Q49.68-6.96 50.29-8.20Q50.91-9.43 52.06-10.10Q53.21-10.76 54.77-10.76L54.77-10.76Q57.14-10.76 58.51-9.29Q59.87-7.82 59.87-5.29L59.87-5.29L59.87-5.18Q59.87-2.71 58.50-1.25Q57.13 0.20 54.79 0.20L54.79 0.20Q52.53 0.20 51.16-1.16Q49.79-2.51 49.69-4.82L49.69-4.82ZM52.98-5.77L52.97-5.18Q52.97-3.71 53.43-3.03Q53.89-2.34 54.79-2.34L54.79-2.34Q56.54-2.34 56.58-5.05L56.58-5.05L56.58-5.38Q56.58-8.22 54.77-8.22L54.77-8.22Q53.12-8.22 52.98-5.77L52.98-5.77ZM60.92-4.82L60.91-5.38Q60.91-6.96 61.52-8.20Q62.14-9.43 63.29-10.10Q64.44-10.76 66.00-10.76L66.00-10.76Q68.37-10.76 69.74-9.29Q71.10-7.82 71.10-5.29L71.10-5.29L71.10-5.18Q71.10-2.71 69.73-1.25Q68.36 0.20 66.02 0.20L66.02 0.20Q63.76 0.20 62.39-1.16Q61.03-2.51 60.92-4.82L60.92-4.82ZM64.21-5.77L64.20-5.18Q64.20-3.71 64.66-3.03Q65.12-2.34 66.02-2.34L66.02-2.34Q67.77-2.34 67.81-5.05L67.81-5.05L67.81-5.38Q67.81-8.22 66.00-8.22L66.00-8.22Q64.35-8.22 64.21-5.77L64.21-5.77ZM76.03-15L76.03 0L72.72 0L72.72-15L76.03-15ZM87.86-5.36L87.86-5.20Q87.86-2.60 86.79-1.20Q85.71 0.20 83.76 0.20L83.76 0.20Q82.15 0.20 81.16-1.08L81.16-1.08L81.03 0L78.08 0L78.08-15L81.37-15L81.37-9.72Q82.29-10.76 83.74-10.76L83.74-10.76Q85.71-10.76 86.79-9.35Q87.86-7.93 87.86-5.36L87.86-5.36ZM84.56-5.40L84.56-5.40Q84.56-6.92 84.16-7.57Q83.75-8.22 82.91-8.22L82.91-8.22Q81.80-8.22 81.37-7.37L81.37-7.37L81.37-3.17Q81.79-2.33 82.93-2.33L82.93-2.33Q84.09-2.33 84.40-3.47L84.40-3.47Q84.56-4.02 84.56-5.40ZM88.91-4.82L88.90-5.38Q88.90-6.96 89.51-8.20Q90.13-9.43 91.28-10.10Q92.43-10.76 93.98-10.76L93.98-10.76Q96.36-10.76 97.72-9.29Q99.09-7.82 99.09-5.29L99.09-5.29L99.09-5.18Q99.09-2.71 97.72-1.25Q96.35 0.20 94.00 0.20L94.00 0.20Q91.75 0.20 90.38-1.16Q89.01-2.51 88.91-4.82L88.91-4.82ZM92.20-5.77L92.19-5.18Q92.19-3.71 92.65-3.03Q93.11-2.34 94.00-2.34L94.00-2.34Q95.76-2.34 95.80-5.05L95.80-5.05L95.80-5.38Q95.80-8.22 93.98-8.22L93.98-8.22Q92.33-8.22 92.20-5.77L92.20-5.77ZM103.13-10.57L104.62-7.66L106.15-10.57L109.57-10.57L106.79-5.42L109.71 0L106.27 0L104.61-3.13L102.98 0L99.52 0L102.45-5.42L99.68-10.57L103.13-10.57Z"></path></g></g></svg><style>@media (prefers-color-scheme: light) { :root { filter: none; } }
@media (prefers-color-scheme: dark) { :root { filter: none; } }
</style></svg>